<svg width="30" height="30" viewBox="0 0 30 30" fill="none" xmlns="http://www.w3.org/2000/svg">
<g clip-path="url(#clip0_52_163)">
<mask id="mask0_52_163" style="mask-type:luminance" maskUnits="userSpaceOnUse" x="0" y="0" width="30" height="30">
<path d="M30 0H0V30H30V0Z" fill="white"/>
</mask>
<g mask="url(#mask0_52_163)">
<path d="M14.3844 30H15.6336C22.4148 30 25.806 30 27.912 27.894C30.018 25.788 30 22.398 30 15.6336V14.3664C30 7.60318 30 4.21201 27.912 2.10601C25.824 6.03497e-06 22.4148 0 15.6336 0H14.3844C7.60201 0 4.212 6.03497e-06 2.106 2.10601C-1.3411e-06 4.21201 0 7.60078 0 14.3664V15.6336C0 22.398 -1.3411e-06 25.788 2.106 27.894C4.212 30 7.60201 30 14.3844 30Z" fill="black"/>
<path d="M16.0985 21.6299C9.33405 21.6299 5.22888 16.9367 5.06927 9.13788H8.49527C8.60209 14.8667 11.2085 17.2979 13.2065 17.7935V9.13788H16.4909V14.0807C18.4181 13.8671 20.4341 11.6183 21.1133 9.13788H24.3425C23.8253 12.1895 21.6305 14.4383 20.0777 15.3659C21.6305 16.1159 24.1288 18.0791 25.0925 21.6299H21.5417C20.7917 19.2563 18.9533 17.4179 16.4909 17.1683V21.6299H16.0985Z" fill="white"/>
</g>
</g>
<defs>
<clipPath id="clip0_52_163">
<rect width="30" height="30" fill="white"/>
</clipPath>
</defs>
</svg>
